<svg width="227" height="39" viewBox="0 0 227 39" fill="none" xmlns="http://www.w3.org/2000/svg">
<path d="M6.67898 0.90909V30H0.528409V0.90909H6.67898ZM17.6768 17.3864V30H11.6257V8.18182H17.3928V12.0312H17.6484C18.1314 10.7623 18.9411 9.75852 20.0774 9.01989C21.2138 8.27178 22.5916 7.89773 24.2109 7.89773C25.7261 7.89773 27.0471 8.22917 28.174 8.89205C29.3009 9.55492 30.1768 10.5019 30.8018 11.733C31.4268 12.9545 31.7393 14.4129 31.7393 16.108V30H25.6882V17.1875C25.6977 15.8523 25.3568 14.8106 24.6655 14.0625C23.9742 13.3049 23.0225 12.9261 21.8104 12.9261C20.996 12.9261 20.2763 13.1013 19.6513 13.4517C19.0357 13.8021 18.5528 14.3134 18.2024 14.9858C17.8615 15.6487 17.6863 16.4489 17.6768 17.3864ZM54.6619 14.4034L49.1222 14.7443C49.0275 14.2708 48.8239 13.8447 48.5114 13.4659C48.1989 13.0777 47.7869 12.7699 47.2756 12.5426C46.7737 12.3059 46.1723 12.1875 45.4716 12.1875C44.5341 12.1875 43.7434 12.3864 43.0994 12.7841C42.4555 13.1723 42.1335 13.6932 42.1335 14.3466C42.1335 14.8674 42.3419 15.3078 42.7585 15.6676C43.1752 16.0275 43.8902 16.3163 44.9034 16.5341L48.8523 17.3295C50.9735 17.7652 52.5549 18.4659 53.5966 19.4318C54.6383 20.3977 55.1591 21.6667 55.1591 23.2386C55.1591 24.6686 54.7377 25.9233 53.8949 27.0028C53.0616 28.0824 51.9157 28.9252 50.4574 29.5312C49.0085 30.1278 47.3371 30.4261 45.4432 30.4261C42.5549 30.4261 40.2538 29.8248 38.5398 28.6222C36.8352 27.41 35.8362 25.7623 35.5426 23.679L41.4943 23.3665C41.6742 24.2472 42.1098 24.9195 42.8011 25.3835C43.4924 25.8381 44.3778 26.0653 45.4574 26.0653C46.518 26.0653 47.3703 25.8617 48.0142 25.4545C48.6676 25.0379 48.9991 24.5028 49.0085 23.8494C48.9991 23.3002 48.767 22.8504 48.3125 22.5C47.858 22.1402 47.1572 21.8655 46.2102 21.6761L42.4318 20.9233C40.3011 20.4972 38.715 19.7585 37.6733 18.7074C36.6411 17.6562 36.125 16.3163 36.125 14.6875C36.125 13.286 36.5038 12.0786 37.2614 11.0653C38.0284 10.0521 39.1032 9.27083 40.4858 8.72159C41.8778 8.17235 43.5066 7.89773 45.3722 7.89773C48.1278 7.89773 50.2964 8.48011 51.8778 9.64489C53.4688 10.8097 54.3968 12.3958 54.6619 14.4034ZM65.1911 30.4119C63.799 30.4119 62.5585 30.1705 61.4695 29.6875C60.3804 29.1951 59.5187 28.4706 58.8842 27.5142C58.2592 26.5483 57.9467 25.3456 57.9467 23.9062C57.9467 22.6941 58.1693 21.6761 58.6143 20.8523C59.0594 20.0284 59.6655 19.3655 60.4325 18.8636C61.1996 18.3617 62.0708 17.983 63.0462 17.7273C64.031 17.4716 65.0632 17.2917 66.1428 17.1875C67.4117 17.0549 68.4344 16.9318 69.2109 16.8182C69.9875 16.6951 70.5509 16.5152 70.9013 16.2784C71.2517 16.0417 71.4268 15.6913 71.4268 15.2273V15.142C71.4268 14.2424 71.1428 13.5464 70.5746 13.054C70.0159 12.5616 69.2204 12.3153 68.1882 12.3153C67.0992 12.3153 66.2327 12.5568 65.5888 13.0398C64.9448 13.5133 64.5187 14.1098 64.3104 14.8295L58.7138 14.375C58.9979 13.0492 59.5566 11.9034 60.3899 10.9375C61.2232 9.96212 62.2981 9.21401 63.6143 8.69318C64.9401 8.16288 66.4742 7.89773 68.2166 7.89773C69.4287 7.89773 70.5888 8.03977 71.6967 8.32386C72.8142 8.60795 73.8037 9.0483 74.6655 9.64489C75.5367 10.2415 76.2232 11.0085 76.7251 11.946C77.227 12.8741 77.478 13.9867 77.478 15.2841V30H71.7393V26.9744H71.5689C71.2185 27.6562 70.7498 28.2576 70.1626 28.7784C69.5755 29.2898 68.87 29.6922 68.0462 29.9858C67.2223 30.2699 66.2706 30.4119 65.1911 30.4119ZM66.924 26.2358C67.8142 26.2358 68.6001 26.0606 69.282 25.7102C69.9638 25.3504 70.4988 24.8674 70.8871 24.2614C71.2753 23.6553 71.4695 22.9687 71.4695 22.2017V19.8864C71.2801 20.0095 71.0197 20.1231 70.6882 20.2273C70.3662 20.322 70.0017 20.4119 69.5945 20.4972C69.1873 20.5729 68.7801 20.6439 68.3729 20.7102C67.9657 20.767 67.5964 20.8191 67.2649 20.8665C66.5547 20.9706 65.9344 21.1364 65.4041 21.3636C64.8738 21.5909 64.4619 21.8987 64.1683 22.2869C63.8748 22.6657 63.728 23.1392 63.728 23.7074C63.728 24.5312 64.0263 25.161 64.6229 25.5966C65.2289 26.0227 65.996 26.2358 66.924 26.2358ZM88.2237 17.3864V30H82.1726V8.18182H87.9396V12.0312H88.1953C88.6783 10.7623 89.4879 9.75852 90.6243 9.01989C91.7607 8.27178 93.1385 7.89773 94.7578 7.89773C96.273 7.89773 97.594 8.22917 98.7209 8.89205C99.8478 9.55492 100.724 10.5019 101.349 11.733C101.974 12.9545 102.286 14.4129 102.286 16.108V30H96.2351V17.1875C96.2446 15.8523 95.9036 14.8106 95.2124 14.0625C94.5211 13.3049 93.5694 12.9261 92.3572 12.9261C91.5429 12.9261 90.8232 13.1013 90.1982 13.4517C89.5826 13.8021 89.0997 14.3134 88.7493 14.9858C88.4084 15.6487 88.2332 16.4489 88.2237 17.3864ZM110.01 38.1818C109.243 38.1818 108.523 38.1203 107.851 37.9972C107.188 37.8835 106.639 37.7367 106.203 37.5568L107.567 33.0398C108.277 33.2576 108.916 33.3759 109.484 33.3949C110.062 33.4138 110.559 33.2813 110.976 32.9972C111.402 32.7131 111.748 32.2301 112.013 31.5483L112.368 30.625L104.541 8.18182H110.905L115.422 24.2045H115.649L120.209 8.18182H126.615L118.135 32.358C117.728 33.5322 117.174 34.5549 116.473 35.4261C115.782 36.3068 114.906 36.9839 113.845 37.4574C112.785 37.9403 111.506 38.1818 110.01 38.1818ZM145.607 9.27557C145.493 8.12973 145.005 7.23958 144.143 6.60511C143.282 5.97064 142.112 5.65341 140.635 5.65341C139.631 5.65341 138.784 5.79545 138.092 6.07955C137.401 6.35417 136.871 6.73769 136.501 7.23011C136.142 7.72254 135.962 8.28125 135.962 8.90625C135.943 9.42708 136.052 9.88163 136.288 10.2699C136.535 10.6581 136.871 10.9943 137.297 11.2784C137.723 11.553 138.215 11.7945 138.774 12.0028C139.333 12.2017 139.929 12.3722 140.564 12.5142L143.178 13.1392C144.446 13.4233 145.611 13.8021 146.672 14.2756C147.732 14.7491 148.651 15.3314 149.428 16.0227C150.204 16.714 150.805 17.5284 151.232 18.4659C151.667 19.4034 151.89 20.4782 151.899 21.6903C151.89 23.4706 151.435 25.0142 150.536 26.321C149.645 27.6184 148.357 28.6269 146.672 29.3466C144.996 30.0568 142.974 30.4119 140.607 30.4119C138.258 30.4119 136.213 30.0521 134.47 29.3324C132.737 28.6127 131.383 27.5473 130.408 26.1364C129.442 24.7159 128.935 22.9593 128.888 20.8665H134.839C134.906 21.8419 135.185 22.6562 135.678 23.3097C136.179 23.9536 136.847 24.4413 137.68 24.7727C138.523 25.0947 139.475 25.2557 140.536 25.2557C141.577 25.2557 142.482 25.1042 143.249 24.8011C144.025 24.4981 144.626 24.0767 145.053 23.5369C145.479 22.9972 145.692 22.3769 145.692 21.6761C145.692 21.0227 145.498 20.4735 145.109 20.0284C144.731 19.5833 144.172 19.2045 143.433 18.892C142.704 18.5795 141.809 18.2955 140.749 18.0398L137.581 17.2443C135.128 16.6477 133.192 15.715 131.771 14.446C130.351 13.1771 129.645 11.4678 129.655 9.31818C129.645 7.55682 130.114 6.01799 131.061 4.7017C132.018 3.38542 133.329 2.35795 134.996 1.61932C136.662 0.880681 138.556 0.511363 140.678 0.511363C142.837 0.511363 144.721 0.880681 146.331 1.61932C147.95 2.35795 149.21 3.38542 150.109 4.7017C151.009 6.01799 151.473 7.54261 151.501 9.27557H145.607ZM161.974 17.3864V30H155.923V0.90909H161.803V12.0312H162.059C162.551 10.7434 163.347 9.73485 164.445 9.00568C165.544 8.26705 166.922 7.89773 168.579 7.89773C170.094 7.89773 171.415 8.22917 172.542 8.89205C173.678 9.54545 174.559 10.4877 175.184 11.7188C175.818 12.9403 176.131 14.4034 176.121 16.108V30H170.07V17.1875C170.08 15.8428 169.739 14.7964 169.048 14.0483C168.366 13.3002 167.409 12.9261 166.178 12.9261C165.354 12.9261 164.625 13.1013 163.991 13.4517C163.366 13.8021 162.873 14.3134 162.513 14.9858C162.163 15.6487 161.983 16.4489 161.974 17.3864ZM190.741 30.4261C188.535 30.4261 186.627 29.9574 185.017 29.0199C183.417 28.0729 182.181 26.7566 181.31 25.071C180.438 23.3759 180.003 21.411 180.003 19.1761C180.003 16.9223 180.438 14.9527 181.31 13.267C182.181 11.572 183.417 10.2557 185.017 9.31818C186.627 8.37121 188.535 7.89773 190.741 7.89773C192.948 7.89773 194.851 8.37121 196.452 9.31818C198.062 10.2557 199.302 11.572 200.173 13.267C201.045 14.9527 201.48 16.9223 201.48 19.1761C201.48 21.411 201.045 23.3759 200.173 25.071C199.302 26.7566 198.062 28.0729 196.452 29.0199C194.851 29.9574 192.948 30.4261 190.741 30.4261ZM190.77 25.7386C191.774 25.7386 192.612 25.4545 193.284 24.8864C193.956 24.3087 194.463 23.5227 194.804 22.5284C195.154 21.5341 195.33 20.4025 195.33 19.1335C195.33 17.8646 195.154 16.733 194.804 15.7386C194.463 14.7443 193.956 13.9583 193.284 13.3807C192.612 12.803 191.774 12.5142 190.77 12.5142C189.757 12.5142 188.904 12.803 188.213 13.3807C187.531 13.9583 187.015 14.7443 186.665 15.7386C186.324 16.733 186.153 17.8646 186.153 19.1335C186.153 20.4025 186.324 21.5341 186.665 22.5284C187.015 23.5227 187.531 24.3087 188.213 24.8864C188.904 25.4545 189.757 25.7386 190.77 25.7386ZM205.415 38.1818V8.18182H211.381V11.8466H211.651C211.916 11.2595 212.299 10.6629 212.801 10.0568C213.313 9.44129 213.975 8.92992 214.79 8.52273C215.614 8.10606 216.636 7.89773 217.858 7.89773C219.449 7.89773 220.917 8.31439 222.261 9.14773C223.606 9.97159 224.681 11.2169 225.486 12.8835C226.291 14.5407 226.693 16.6193 226.693 19.1193C226.693 21.553 226.3 23.608 225.514 25.2841C224.738 26.9508 223.677 28.215 222.332 29.0767C220.997 29.929 219.501 30.3551 217.844 30.3551C216.67 30.3551 215.67 30.161 214.847 29.7727C214.032 29.3845 213.365 28.8968 212.844 28.3097C212.323 27.7131 211.925 27.1117 211.651 26.5057H211.466V38.1818H205.415ZM211.338 19.0909C211.338 20.3883 211.518 21.5199 211.878 22.4858C212.238 23.4517 212.759 24.2045 213.44 24.7443C214.122 25.2746 214.951 25.5398 215.926 25.5398C216.911 25.5398 217.744 25.2699 218.426 24.7301C219.108 24.1809 219.624 23.4233 219.974 22.4574C220.334 21.482 220.514 20.3598 220.514 19.0909C220.514 17.8314 220.339 16.7235 219.989 15.767C219.638 14.8106 219.122 14.0625 218.44 13.5227C217.759 12.983 216.92 12.7131 215.926 12.7131C214.941 12.7131 214.108 12.9735 213.426 13.4943C212.754 14.0152 212.238 14.7538 211.878 15.7102C211.518 16.6667 211.338 17.7936 211.338 19.0909Z" fill="#5D5D6D"/>
</svg>
